<svg width="40" height="40" viewBox="0 0 40 40" fill="none" xmlns="http://www.w3.org/2000/svg">
  <!-- Browser window background -->
  <rect x="2" y="4" width="32" height="28" rx="4" fill="none" stroke="#5F27CD" stroke-width="2"/>
  <rect x="2" y="4" width="32" height="10" rx="4" fill="#5F27CD"/>
  
  <!-- Browser controls -->
  <circle cx="6" cy="9" r="2" fill="white" opacity="0.9"/>
  <circle cx="10" cy="9" r="2" fill="white" opacity="0.9"/>
  <circle cx="14" cy="9" r="2" fill="white" opacity="0.9"/>
  
  <!-- Browser content -->
  <rect x="5" y="17" width="26" height="2" rx="1" fill="#5F27CD" opacity="0.4"/>
  <rect x="5" y="21" width="14" height="8" rx="1" fill="#5F27CD" opacity="0.3"/>
  <rect x="21" y="21" width="10" height="2" rx="1" fill="#5F27CD" opacity="0.3"/>
  <rect x="21" y="25" width="10" height="2" rx="1" fill="#5F27CD" opacity="0.3"/>
  <rect x="21" y="29" width="10" height="2" rx="1" fill="#5F27CD" opacity="0.3"/>
  
  <!-- Shopping bag with S (Shopify) -->
  <path d="M25 16 L25 20 L29 20 L29 16 Z" fill="#5F27CD" stroke="#5F27CD" stroke-width="2" stroke-linecap="round"/>
  <path d="M23 20 L31 20 L31 30 L23 30 Z" fill="#5F27CD"/>
  <path d="M24 20 L24 16 M30 20 L30 16" stroke="white" stroke-width="2" stroke-linecap="round"/>
  <text x="27" y="26" font-family="Arial, sans-serif" font-size="10" font-weight="bold" fill="white" text-anchor="middle">S</text>
</svg>

